<svg xmlns="http://www.w3.org/2000/svg" viewBox="0 0 250 250"><defs><clipPath id="clip-path"><path fill="none" d="M.3-.9V125a125 125 0 00250 0V-.9H.3z"/></clipPath><style>.cls-11,.cls-23,.cls-6{fill-rule:evenodd}.cls-6,.cls-9{fill:#fff}.cls-22{fill:#7bc5df}.cls-10,.cls-11{fill:#e2e2e2}.cls-14{fill:#311601}.cls-15{fill:#ffce8d}.cls-17{fill:#ffe8b4}.cls-18{fill:#fb9978}.cls-19{fill:#ffb2a3}.cls-20{fill:#58565e}.cls-23{fill:#f8b62d}</style></defs><circle cx="125" cy="125" r="125" fill="#00588a"/><g clip-path="url(#clip-path)"><path fill-rule="evenodd" d="M167.9 213l-97.7 26.2a24.8 24.8 0 01-30.4-17L1.3 78.3A24.5 24.5 0 0119 48.7l97.7-26.2a23.4 23.4 0 0129 17l38.6 144c3.4 12.8-3.4 26-16.5 29.5z" opacity=".1"/><path d="M169.3 209l-99.6 26.6a21.6 21.6 0 01-26.5-15.3L3.2 70.7a21.6 21.6 0 0115.2-26.5L118 17.5a21.6 21.6 0 0126.5 15.3l40 149.6a21.6 21.6 0 01-15.2 26.5" class="cls-6"/><path fill="#7bc5df" fill-rule="evenodd" d="M13.5 109.3L3 70.7a21.6 21.6 0 0115.3-26.5L118 17.5a21.6 21.6 0 0126.5 15.3l10.3 38.7z"/><path fill="#f5f5f5" fill-rule="evenodd" d="M119.3 113.2l-49.8 13.3a5.4 5.4 0 01-6.6-3.8L49.5 73a5.4 5.4 0 013.9-6.6L103 52.9a5.4 5.4 0 016.7 3.8l13.3 49.9a5.4 5.4 0 01-3.8 6.6z"/><path d="M112 111.2l-37.3 10a3.9 3.9 0 01-4.7-2.8l-.8-3a17 17 0 0112-20.8l12-3.2a17 17 0 0120.7 12l.8 3a3.9 3.9 0 01-2.7 4.8" class="cls-6"/><path d="M81.2 70.8a12.7 12.7 0 01-10.8 8 12.8 12.8 0 1024.3-6.5 12.7 12.7 0 01-13.5-1.5z" class="cls-9"/><path d="M82 64.8a12.8 12.8 0 00-11.7 14 12.7 12.7 0 0010.9-8 12.7 12.7 0 0013.4 1.5A12.8 12.8 0 0082 64.8z" class="cls-10"/><path d="M69.2 115.4l44.7-12 1.8 6.8-44.7 12z" class="cls-9"/><path d="M112.3 132L85 139.3a3.9 3.9 0 01-2-7.4l27.4-7.4a3.9 3.9 0 112 7.5M130.7 141l-57.2 15.3a3.9 3.9 0 01-2-7.5l57.2-15.3a3.9 3.9 0 112 7.5" class="cls-11"/><path fill="#f6f6f6" d="M149 144.8l-93.8 25.1c-3.1.9-5.5 3.9-4.7 7l16 59.5a33 33 0 003.2-.7l99.6-26.7a20.8 20.8 0 002.5-.9l-16-59.5a5.3 5.3 0 00-6.8-3.8z"/><rect width="87.1" height="5" x="63.7" y="165.6" class="cls-10" rx="2.5" ry="2.5" transform="rotate(-15 106.7 167.3)"/><g><rect width="87.1" height="5" x="66.7" y="176.8" class="cls-10" rx="2.5" ry="2.5" transform="rotate(-15 110.2 179.2)"/></g><g><rect width="67.7" height="5" x="70" y="190.4" class="cls-10" rx="2.5" ry="2.5" transform="rotate(-15 103.4 192)"/></g><g><rect width="87.1" height="5" x="72.7" y="199.1" class="cls-10" rx="2.5" ry="2.5" transform="rotate(-15 116.2 201.6)"/></g><g><rect width="75" height="5" x="75.9" y="211.8" class="cls-10" rx="2.5" ry="2.5" transform="rotate(-15 113.4 214.3)"/></g><g><path d="M210.8 154.1a13.4 13.4 0 0013.6-13.3 13 13 0 00-.8-4.4l-6-25.1A44.8 44.8 0 10131 88.2v.1a45.6 45.6 0 00-1 6l-7.2 44.5a13.4 13.4 0 008.9 15l-3.5.9a5.2 5.2 0 00-3.7 6.3l2.3 8.6 1.7 6.3-5.4 7-.2.1-.2.3-.1.2-.2.2a4.3 4.3 0 00-.6 2.5v.3a4.8 4.8 0 00.1.8l5 19a6.1 6.1 0 003.2 3.4v32.4c0 17.2 14.6 31 31.8 31h22a31 31 0 0031.1-31v-51.7a32 32 0 00-23-30.7 31 31 0 00-8-1.5h-4v-4h30.6zm-45.5 4H162a31 31 0 00-3.6.5l-1.3-4.5h8v4z" opacity=".1"/><path d="M228.9 137.4l-6.3-26.1a44.9 44.9 0 00-30.3-56c-.3 3-6.3 4.9-6.8 8-.7 3.8 3 8.3 1.8 11.9a55 55 0 0121.8 16.3l-14.8 6.3v24.3h-35V97.8l-23-9.6-8.4 50.6a12.9 12.9 0 0012.4 15.6v-.3H216a13.4 13.4 0 0013.5-13.3 12.3 12.3 0 00-.5-3.4z" class="cls-14"/><path d="M170.3 145.1h15v14h-15zM212.7 100.1h2.5a6.1 6.1 0 016 6.2v4.7a6.1 6.1 0 01-6 6.1h-2.6a6.3 6.3 0 01-6.3-6.3v-4.2a6.4 6.4 0 016.4-6.5z" class="cls-15"/><rect width="8" height="9" x="210.3" y="104.1" fill="#f57b56" rx="3.4" ry="3.4"/><ellipse cx="178.1" cy="106.8" class="cls-17" rx="35.8" ry="43.9"/><path d="M191 64.3c.6-3 1-6 1.3-9a44.8 44.8 0 00-57.4 43c-.1 9-3.8 9.3 3 17.1 21.6-9.2 47.4-20.8 53.1-51z" class="cls-14"/><path d="M197.3 159.7a31.4 31.4 0 00-8.2-1.6h-22a31.9 31.9 0 00-29.2 20.6 67.5 67.5 0 0011.9 1.1 65 65 0 0047.5-20z" class="cls-17"/><path d="M197.3 160.1a66.3 66.3 0 01-47.6 20.2 67 67 0 01-11.9-1.2 31.8 31.8 0 00-2.5 11.3v-.3h15v52a31 31 0 01-7.4 20 31.5 31.5 0 0024.2 11h22a31 31 0 0031.1-31v-51.7a31.4 31.4 0 00-23-30.3z" class="cls-18"/><path d="M143.3 191.1h7v71h-7z" class="cls-18"/><path d="M205.3 190.1v79.1a32.3 32.3 0 0015-27.1v-52h-15z" class="cls-17"/><rect width="15" height="41" x="135.3" y="183.1" class="cls-15" rx="7.5" ry="7.5" transform="rotate(180 142.8 203.6)"/><path d="M165.7 126.1a1 1 0 00-.8 1.5 16.4 16.4 0 0025.6.1 1 1 0 00-.8-1.6h-24z" class="cls-9"/><rect width="13" height="6" x="148.3" y="110.1" class="cls-19" rx="2.9" ry="2.9"/><rect width="13" height="6" x="195.3" y="110.1" class="cls-19" rx="2.9" ry="2.9"/><rect width="6" height="3" x="174.3" y="136.1" class="cls-15" rx="1.4" ry="1.4"/><rect width="5.4" height="1.3" x="194.5" y="102.6" class="cls-14" rx=".5" ry=".5" transform="rotate(101 197.2 103.2)"/><rect width="5.4" height="1.3" x="191.7" y="101.8" class="cls-14" rx=".5" ry=".5" transform="rotate(91 194.4 102.5)"/><rect width="5.4" height="1.3" x="188.9" y="102.6" class="cls-14" rx=".5" ry=".5" transform="rotate(81 191.6 103.2)"/><circle cx="194.3" cy="107.3" r="5.5" class="cls-14" transform="rotate(-45 194.3 107.3)"/><rect width="33.2" height="50.8" x="134.3" y="152.8" class="cls-20" rx="5.2" ry="5.2" transform="rotate(-15 150.9 178.2)"/><rect width="19" height="8.6" x="124.9" y="179.5" fill="#ffc1ab" rx="4.3" ry="4.3" transform="rotate(-52.2 134.4 183.8)"/><rect width="21.1" height="29.4" x="129.3" y="181.4" class="cls-17" rx="4.9" ry="4.9" transform="rotate(-15 139.8 196.1)"/><rect width="19" height="8.6" x="138.3" y="178.9" class="cls-17" rx="4.3" ry="4.3" transform="rotate(-15 147.8 183.2)"/><g><path d="M131.9 171.6l11-3 3 10.7-11.2 3z" class="cls-20"/></g><g><circle cx="134.9" cy="162" r="1.6" class="cls-22"/></g><g><circle cx="138.9" cy="161" r="1" class="cls-22"/></g><g><path d="M188.8 99a1.5 1.5 0 01-.6-2.9 19.7 19.7 0 0113.1-.9 1.5 1.5 0 11-.9 3 16.8 16.8 0 00-11 .6 1.5 1.5 0 01-.6.2z" class="cls-14"/></g><g><path d="M224.2 93.3a44.8 44.8 0 00-31.9-38c-.3 3-6.3 5-6.8 8-.7 3.8 3 8.3 1.8 11.9a57.1 57.1 0 0126.3 22.7z" class="cls-14"/></g><g><circle cx="177.3" cy="118.4" r="3.3" class="cls-15"/></g><g><ellipse cx="192.6" cy="105.6" class="cls-9" rx="2.3" ry="1.4" transform="rotate(-45 192.6 105.6)"/></g><g><circle cx="161.3" cy="107.3" r="5.5" class="cls-14" transform="rotate(-45 161.3 107.3)"/></g><g><ellipse cx="159.6" cy="105.6" class="cls-9" rx="2.3" ry="1.4" transform="rotate(-45 159.6 105.6)"/></g></g></g><path d="M104.6 199.4a8.3 8.3 0 018.2 8.2 8.3 8.3 0 018.3-8.2v-.1a8.3 8.3 0 01-8.3-8.3 8.3 8.3 0 01-8.2 8.3zM54.3 166.8a8.3 8.3 0 018.3 8.3 8.3 8.3 0 018.3-8.3 8.3 8.3 0 01-8.3-8.3 8.3 8.3 0 01-8.3 8.3z" class="cls-23"/><path d="M36.6 85.4a2.9 2.9 0 112.9-2.9 2.9 2.9 0 01-2.9 2.9z" class="cls-22"/><path fill="#3397cf" d="M234.9 29.1h-27c-8.3 0-14.6 7-14.6 15.2v7.5a14.8 14.8 0 0014.8 15L208 74a1.4 1.4 0 001.4 1.1 1.7 1.7 0 001-.2v.2l11-7.8H235A15.6 15.6 0 00250.4 52v-7.5A15.5 15.5 0 00234.9 29z"/><rect width="40" height="3" x="201.3" y="41.1" class="cls-9" rx="1.4" ry="1.4"/><rect width="40" height="3" x="201.3" y="47.1" class="cls-9" rx="1.4" ry="1.4"/><rect width="25" height="3" x="201.3" y="53.1" class="cls-9" rx="1.4" ry="1.4"/></svg>
